<svg xmlns="http://www.w3.org/2000/svg" width="44" height="44" viewBox="0 0 44 44" fill="none">
  <path fill-rule="evenodd" clip-rule="evenodd" d="M22.4995 1.8335C27.1875 1.8335 31.0081 5.45341 31.5874 10.0835H32.7798C34.7256 10.0835 36.3328 11.6034 36.4411 13.5461L37.6532 35.3438C37.8865 39.547 34.5403 43.0834 30.3306 43.0835H14.6685C10.459 43.0831 7.11259 39.5468 7.34588 35.3438L8.55617 13.5461C8.66443 11.6037 10.2721 10.084 12.2175 10.0835H13.4116C13.9909 5.45348 17.8117 1.83368 22.4995 1.8335ZM15.1662 15.5835C15.1662 16.0898 14.7558 16.5002 14.2495 16.5002C13.7434 16.5 13.3329 16.0896 13.3329 15.5835V13.0054C12.348 13.3794 11.6465 14.3295 11.6463 15.4456C11.6463 16.8882 12.816 18.0574 14.2585 18.0578C15.7012 18.0577 16.8706 16.8884 16.8706 15.4456C16.8705 14.3223 16.1612 13.3671 15.1662 12.9982V15.5835ZM31.6662 15.5835C31.6662 16.0898 31.2558 16.5002 30.7495 16.5002C30.2434 16.5 29.8329 16.0896 29.8329 15.5835V13.0054C28.848 13.3794 28.1465 14.3295 28.1463 15.4456C28.1463 16.8882 29.316 18.0574 30.7585 18.0578C32.2013 18.0577 33.3706 16.8885 33.3706 15.4456C33.3705 14.3223 32.6612 13.3671 31.6662 12.9982V15.5835ZM22.4995 3.66683C18.8748 3.66701 15.8246 6.42413 15.2611 10.0835H29.7398C29.1762 6.42393 26.1245 3.66683 22.4995 3.66683Z" fill="url(#paint0_radial_27947_20889)"/>
  <defs>
    <radialGradient id="paint0_radial_27947_20889" cx="0" cy="0" r="1" gradientTransform="matrix(24.6434 -34.2585 31.2176 61.8568 11.0204 39.0634)" gradientUnits="userSpaceOnUse">
      <stop offset="0.153871" stop-color="#FF2947"/>
      <stop offset="0.695363" stop-color="#121E6C"/>
    </radialGradient>
  </defs>
</svg>
